<svg width="24" height="24" viewBox="0 0 24 24" fill="currentColor" aria-hidden="true" xmlns="http://www.w3.org/2000/svg">
  <path d="M14.25.18l.9.2.73.26.59.3.45.32.34.34.25.34.16.33.1.3.04.26.02.2-.01.13V8.5l-.05.63-.13.55-.21.46-.26.38-.3.31-.33.25-.35.19-.35.14-.33.1-.3.07-.26.04-.21.02H8.77l-.69.05-.59.14-.5.22-.41.27-.33.32-.27.35-.20.36-.15.37-.1.35-.07.32-.04.27-.02.21v3.06H3.17l-.21-.03-.28-.07-.32-.12-.35-.18-.36-.26-.36-.36-.35-.46-.32-.59-.28-.73-.21-.88-.14-1.05L0 11.97l.06-1.22.16-1.04.24-.87.32-.71.36-.57.4-.44.42-.33.42-.24.4-.16.36-.1.32-.05.28-.01h.2l.013.01 2.54.01V7.01l.05-.39.14-.33.21-.27.27-.21.31-.15.34-.09.35-.04.33-.01h4.69l.28.02.26.07.23.12.2.16.16.19.12.22.08.24.05.24.02.24-.01.23v5.56h.01l-.03.25-.08.24-.13.23-.16.2-.19.17-.21.15-.22.12-.22.09-.21.06-.18.04-.15.02-.12.01H9.3l-.06.01-.14.04-.12.08-.1.1-.08.12-.05.14-.03.14-.01.14v2.42l.01.14.03.14.06.13.08.11.1.09.11.07.12.05.12.03.11.01.1.01h4.02l.28-.01.26-.05.24-.1.21-.14.17-.18.13-.22.09-.25.06-.28.03-.3.01-.31V7.2l-.02-.26-.06-.24-.1-.21-.14-.18-.17-.14-.2-.1-.21-.07-.21-.04-.19-.01-.16.01H7.83l-.13-.01-.14-.03-.12-.06-.11-.08-.09-.1-.07-.12-.05-.13-.03-.14-.01-.14V.5l.01-.14.03-.14.05-.13.07-.12.09-.1.1-.08.11-.07.13-.05.14-.04.14-.02.14-.01L14.25.18z"/>
</svg>
